<mxfile host="65bd71144e" scale="1" border="20">
    <diagram id="eIwPpuqnjJ_HxixB2GTP" name="Page-1">
        <mxGraphModel dx="1576" dy="571" grid="1" gridSize="10" guides="1" tooltips="1" connect="1" arrows="1" fold="1" page="1" pageScale="1" pageWidth="827" pageHeight="1169" math="0" shadow="0">
            <root>
                <mxCell id="0"/>
                <mxCell id="1" parent="0"/>
                <mxCell id="6" style="edgeStyle=none;html=1;strokeWidth=3;sourcePerimeterSpacing=20;targetPerimeterSpacing=20;strokeColor=#6600CC;fontSize=14;fontStyle=1" parent="1" source="2" target="5" edge="1">
                    <mxGeometry relative="1" as="geometry"/>
                </mxCell>
                <mxCell id="2" value="Customer Gateway" style="sketch=0;outlineConnect=0;fontColor=#232F3E;gradientColor=none;fillColor=#4D27AA;strokeColor=none;dashed=0;verticalLabelPosition=bottom;verticalAlign=top;align=center;html=1;fontSize=14;fontStyle=1;aspect=fixed;pointerEvents=1;shape=mxgraph.aws4.customer_gateway;" parent="1" vertex="1">
                    <mxGeometry x="160" y="160" width="78" height="78" as="geometry"/>
                </mxCell>
                <mxCell id="4" style="edgeStyle=none;html=1;strokeWidth=3;targetPerimeterSpacing=20;sourcePerimeterSpacing=20;strokeColor=#6600CC;fontSize=14;fontStyle=1" parent="1" source="3" target="2" edge="1">
                    <mxGeometry relative="1" as="geometry"/>
                </mxCell>
                <mxCell id="3" value="Windows Server" style="image;html=1;image=img/lib/clip_art/computers/Server_128x128.png;fontSize=14;fontStyle=1" parent="1" vertex="1">
                    <mxGeometry x="-80" y="160" width="80" height="80" as="geometry"/>
                </mxCell>
                <mxCell id="8" style="edgeStyle=none;html=1;strokeColor=#6600CC;strokeWidth=3;sourcePerimeterSpacing=20;targetPerimeterSpacing=20;fontSize=14;fontStyle=1" parent="1" source="5" edge="1">
                    <mxGeometry relative="1" as="geometry">
                        <mxPoint x="630" y="199" as="targetPoint"/>
                    </mxGeometry>
                </mxCell>
                <mxCell id="5" value="VPN Connection" style="sketch=0;outlineConnect=0;fontColor=#232F3E;gradientColor=none;fillColor=#4D27AA;strokeColor=none;dashed=0;verticalLabelPosition=bottom;verticalAlign=top;align=center;html=1;fontSize=14;fontStyle=1;aspect=fixed;pointerEvents=1;shape=mxgraph.aws4.vpn_connection;" parent="1" vertex="1">
                    <mxGeometry x="400" y="160" width="70" height="78" as="geometry"/>
                </mxCell>
                <mxCell id="11" style="edgeStyle=none;html=1;strokeColor=#6600CC;strokeWidth=3;fontSize=14;sourcePerimeterSpacing=20;targetPerimeterSpacing=20;" parent="1" source="7" target="9" edge="1">
                    <mxGeometry relative="1" as="geometry"/>
                </mxCell>
                <mxCell id="7" value="Virtual Private Gateway" style="sketch=0;outlineConnect=0;fontColor=#232F3E;gradientColor=none;fillColor=#4D27AA;strokeColor=none;dashed=0;verticalLabelPosition=bottom;verticalAlign=top;align=center;html=1;fontSize=14;fontStyle=1;aspect=fixed;pointerEvents=1;shape=mxgraph.aws4.router;" parent="1" vertex="1">
                    <mxGeometry x="640" y="161" width="78" height="78" as="geometry"/>
                </mxCell>
                <mxCell id="9" value="Transit Gateway" style="sketch=0;points=[[0,0,0],[0.25,0,0],[0.5,0,0],[0.75,0,0],[1,0,0],[0,1,0],[0.25,1,0],[0.5,1,0],[0.75,1,0],[1,1,0],[0,0.25,0],[0,0.5,0],[0,0.75,0],[1,0.25,0],[1,0.5,0],[1,0.75,0]];outlineConnect=0;fontColor=#232F3E;gradientColor=#945DF2;gradientDirection=north;fillColor=#5A30B5;strokeColor=#ffffff;dashed=0;verticalLabelPosition=bottom;verticalAlign=top;align=center;html=1;fontSize=14;fontStyle=1;aspect=fixed;shape=mxgraph.aws4.resourceIcon;resIcon=mxgraph.aws4.transit_gateway;" parent="1" vertex="1">
                    <mxGeometry x="880" y="161" width="78" height="78" as="geometry"/>
                </mxCell>
            </root>
        </mxGraphModel>
    </diagram>
</mxfile>